<?xml version="1.0" encoding="UTF-8"?><svg id="Layer_2" xmlns="http://www.w3.org/2000/svg" viewBox="0 0 1181.25 363.39"><g id="Layer_1-2"><path d="m365.27,286.66V99.76h34.5c10,0,18,1.9,24,5.7,6,3.8,10.45,9.4,13.35,16.8,2.9,7.4,4.35,16.5,4.35,27.3,0,9-1.35,16.8-4.05,23.4-2.7,6.6-6.3,11.9-10.8,15.9-4.5,4-9.55,6.7-15.15,8.1l33.6,89.7h-7.5l-33.6-88.8h-31.5v88.8h-7.2Zm7.2-95.1h29.4c10.8,0,18.85-3.75,24.15-11.25,5.3-7.5,7.95-17.75,7.95-30.75,0-9.2-1.1-17.05-3.3-23.55-2.2-6.5-5.65-11.4-10.35-14.7-4.7-3.3-11.05-4.95-19.05-4.95h-28.8v85.2Z" stroke-width="0"/><path d="m508.06,289.96c-9.6,0-17.7-3.2-24.3-9.6-6.6-6.4-11.55-16.65-14.85-30.75-3.3-14.1-4.95-32.55-4.95-55.35s1.65-40.35,4.95-54.45c3.3-14.1,8.25-24.5,14.85-31.2,6.6-6.7,14.7-10.05,24.3-10.05s17.65,3.35,24.15,10.05c6.5,6.7,11.45,17.1,14.85,31.2,3.4,14.1,5.1,32.25,5.1,54.45s-1.7,41.25-5.1,55.35c-3.4,14.1-8.35,24.35-14.85,30.75-6.5,6.4-14.55,9.6-24.15,9.6Zm0-6.6c8,0,14.75-3,20.25-9,5.5-6,9.65-15.6,12.45-28.8,2.8-13.2,4.2-30.3,4.2-51.3s-1.4-37.15-4.2-50.25c-2.8-13.1-6.95-22.85-12.45-29.25-5.5-6.4-12.25-9.6-20.25-9.6s-14.75,3.2-20.25,9.6c-5.5,6.4-9.7,16.15-12.6,29.25-2.9,13.1-4.35,29.85-4.35,50.25s1.45,38.1,4.35,51.3c2.9,13.2,7.1,22.8,12.6,28.8,5.5,6,12.25,9,20.25,9Z" stroke-width="0"/><path d="m582.91,273.76c-5.9-10.8-8.85-26.8-8.85-48v-126h9.6v2.1c-1,.4-1.65,1.25-1.95,2.55-.3,1.3-.35,3.65-.15,7.05v114.6c0,19.2,2.5,33.6,7.5,43.2,5,9.6,13.1,14.3,24.3,14.1,11.6,0,19.85-4.65,24.75-13.95,4.9-9.3,7.35-24.05,7.35-44.25v-125.4h7.5v125.1c0,15.6-1.4,28.15-4.2,37.65-2.8,9.5-7.15,16.45-13.05,20.85-5.9,4.4-13.35,6.6-22.35,6.6-14.4,0-24.55-5.4-30.45-16.2Z" stroke-width="0"/><path d="m712.96,286.66V106.36h-40.2v-6.6h89.4v6.6h-42v180.3h-7.2Z" stroke-width="0"/><path d="m784.66,286.66V99.76h76.5v6.3h-69.3v79.8h57.6v6.6h-57.6v87.9h68.7v6.3h-75.9Z" stroke-width="0"/><path d="m895.05,286.66V99.76h69.9v6.6h-63.3v76.5h51.6v6.3h-51.6v97.5h-6.6Z" stroke-width="0"/><path d="m997.95,99.76h9.3v2.1c-1,.4-1.65,1.25-1.95,2.55-.3,1.3-.35,3.65-.15,7.05v168.9h66v6.3h-73.2V99.76Z" stroke-width="0"/><path d="m1136.25,286.66v-81.9l-41.1-105h7.5l36.9,94.2,34.5-94.2h7.2l-38.1,105v81.9h-6.9Z" stroke-width="0"/><path d="m112.28,241.06c1.73-2.85-31.99-18.53-54.34-46.15C16.73,143.98,13.84,52.05,55.71,17.76c2.12-1.74,19.66-15.69,42.43-14.14,37.65,2.56,62.7,45.69,71.46,74.43,5.38,17.67,4.83,31.38,3.72,58.8-2.11,52.4-14,91.37-17.12,101.23-9.93,31.41-23.03,71.23-57.31,102.72-12.01,11.03-22.17,16.94-34.24,18.61-20.93,2.88-44.01-7.5-54.34-23.82-22.6-35.73,15.22-101.13,52.85-107.93,24.37-4.4,47.56,15.98,49.13,13.4Z" fill="none" stroke="#000" stroke-miterlimit="10" stroke-width="7"/><path d="m194.9,171.84s-32.79,45.5-59.2,132.94c-1.63,5.39-5.16,17.69-.01,30.12,1,2.41,6.5,14.91,16.12,16.45,12.96,2.08,25.24-17.03,31.16-26.26,7.9-12.3,20.12-36.43,20.12-74.35,19.79-19.35,32.43-37.64,40.19-50.61,6.57-10.98,10.46-19.5,13.22-25.61,7.96-17.59,12.54-27.97,12.96-42.02.26-8.66.73-24.36-6.08-27.65-14.99-7.23-56.24,50.01-68.48,66.99Z" fill="none" stroke="#000" stroke-miterlimit="10" stroke-width="7"/></g></svg>