<?xml version="1.0" encoding="UTF-8"?><svg id="Layer_2" xmlns="http://www.w3.org/2000/svg" viewBox="0 0 275.08 365.39"><g id="Layer_1-2"><path d="m113.28,242.06c1.73-2.85-31.99-18.53-54.34-46.15C17.73,144.98,14.84,53.05,56.71,18.76c2.12-1.74,19.66-15.69,42.43-14.14,37.65,2.56,62.7,45.69,71.46,74.43,5.38,17.67,4.83,31.38,3.72,58.8-2.11,52.4-14,91.37-17.12,101.23-9.93,31.41-23.03,71.23-57.31,102.72-12.01,11.03-22.17,16.94-34.24,18.61-20.93,2.88-44.01-7.5-54.34-23.82-22.6-35.73,15.22-101.13,52.85-107.93,24.37-4.4,47.56,15.98,49.13,13.4Z" fill="none" stroke="#000" stroke-miterlimit="10" stroke-width="9"/><path d="m195.9,172.84s-32.79,45.5-59.2,132.94c-1.63,5.39-5.16,17.69-.01,30.12,1,2.41,6.5,14.91,16.12,16.45,12.96,2.08,25.24-17.03,31.16-26.26,7.9-12.3,20.12-36.43,20.12-74.35,19.79-19.35,32.43-37.64,40.19-50.61,6.57-10.98,10.46-19.5,13.22-25.61,7.96-17.59,12.54-27.97,12.96-42.02.26-8.66.73-24.36-6.08-27.65-14.99-7.23-56.24,50.01-68.48,66.99Z" fill="none" stroke="#000" stroke-miterlimit="10" stroke-width="9"/></g></svg>